<svg width="111.87" height="122.88" xmlns="http://www.w3.org/2000/svg" data-name="Layer 1">

 <title>edit_file</title>
 <g>
  <title>Layer 1</title>
  <path id="svg_1" fill-rule="evenodd" d="m56.75,113.57l0,-38.5a9.34,9.34 0 0 1 9.31,-9.3l36.5,0a9.34,9.34 0 0 1 9.31,9.3l0,38.5a9.34,9.34 0 0 1 -9.31,9.31l-36.5,0a9.34,9.34 0 0 1 -9.31,-9.31zm2.74,-102.1l19.59,18.35l-19.59,0l0,-18.35zm-38.77,57.91a2.12,2.12 0 0 0 -2,2.21a2.08,2.08 0 0 0 2,2.21l24.58,0l0,-4.42l-24.58,0zm0,15.83a2.12,2.12 0 0 0 -2,2.21a2.08,2.08 0 0 0 2,2.21l24.58,0l0,-4.42l-24.58,0zm0,-47.5a2.12,2.12 0 0 0 -2,2.21a2.09,2.09 0 0 0 2,2.21l22.73,0a2.13,2.13 0 0 0 2,-2.2a2.1,2.1 0 0 0 -2,-2.22l-22.73,0zm0,-15.83a2.12,2.12 0 0 0 -2,2.21a2.08,2.08 0 0 0 2,2.21l12.5,0a2.12,2.12 0 0 0 2,-2.21a2.1,2.1 0 0 0 -2,-2.21l-12.5,0zm0,31.67a2.12,2.12 0 0 0 -2,2.21a2.1,2.1 0 0 0 2,2.21l38.44,0a2.13,2.13 0 0 0 2,-2.21a2.09,2.09 0 0 0 -2,-2.21l-38.44,0zm69.28,-21.1a3.26,3.26 0 0 0 -2.37,-3.14l-28.89,-28.11a3.21,3.21 0 0 0 -2.51,-1.2l-50.36,0a5.86,5.86 0 0 0 -5.87,5.86l0,100.39a5.84,5.84 0 0 0 1.72,4.15a5.91,5.91 0 0 0 4.15,1.71l39.52,0l0,-6.55l-38.84,0l0,-99l46.39,0l0,26.52a3.29,3.29 0 0 0 3.29,3.29l27.2,0l0,21.45l6.57,0l0,-25.37zm-7.6,73.55l-11.58,3.09l1.67,-12.43l9.91,9.34zm-7.4,-12.14l12.36,-14a1.06,1.06 0 0 1 0.76,-0.36a1.17,1.17 0 0 1 0.52,0.12l8.83,8a0.92,0.92 0 0 1 0.28,0.64a0.89,0.89 0 0 1 -0.31,0.71l-12.52,14.23l-9.92,-9.34z" class="cls-1"/>
 </g>
</svg>