<svg width="122.88" height="119.72" xmlns="http://www.w3.org/2000/svg" xml:space="preserve" version="1.1">

 <g>
  <title>Layer 1</title>
  <g id="svg_1">
   <path stroke="#000" fill="#00007f" id="svg_2" d="m22.72,0l77.45,0c6.25,0 11.93,2.56 16.05,6.67c4.11,4.11 6.67,9.79 6.67,16.05l0,74.29c0,6.25 -2.56,11.93 -6.67,16.05l-0.32,0.29c-4.09,3.94 -9.64,6.38 -15.73,6.38l-77.45,0c-6.25,0 -11.93,-2.56 -16.05,-6.67l-0.3,-0.32c-3.94,-4.1 -6.37,-9.65 -6.37,-15.73l0,-74.3c0,-6.25 2.55,-11.93 6.67,-16.05c4.11,-4.11 9.79,-6.66 16.05,-6.66l0,0zm32.75,38.34c0,-3.3 2.67,-5.97 5.97,-5.97c3.3,0 5.97,2.67 5.97,5.97l0,15.55l15.55,0c3.3,0 5.97,2.67 5.97,5.97c0,3.3 -2.67,5.97 -5.97,5.97l-15.55,0l0,15.55c0,3.3 -2.67,5.97 -5.97,5.97c-3.3,0 -5.97,-2.67 -5.97,-5.97l0,-15.55l-15.56,0c-3.3,0 -5.97,-2.67 -5.97,-5.97c0,-3.3 2.67,-5.97 5.97,-5.97l15.55,0l0,-15.55l0.01,0zm44.69,-28.1l-77.44,0c-3.43,0 -6.54,1.41 -8.81,3.67c-2.26,2.26 -3.67,5.38 -3.67,8.81l0,74.29c0,3.33 1.31,6.35 3.43,8.59l0.24,0.22c2.26,2.26 5.38,3.67 8.81,3.67l77.45,0c3.32,0 6.35,-1.31 8.59,-3.44l0.21,-0.23c2.26,-2.26 3.67,-5.38 3.67,-8.81l0,-74.3c0,-3.42 -1.41,-6.54 -3.67,-8.81c-2.26,-2.25 -5.38,-3.66 -8.81,-3.66l0,0z"/>
  </g>
 </g>
</svg>