<?xml version="1.0" encoding="UTF-8"?>
<!DOCTYPE svg  PUBLIC '-//W3C//DTD SVG 1.1//EN'  'http://www.w3.org/Graphics/SVG/1.1/DTD/svg11.dtd'>
<svg width="32.77mm" height="31.36mm" fill-rule="evenodd" stroke-linejoin="round" stroke-width="28.222" preserveAspectRatio="xMidYMid" version="1.2" viewBox="0 0 3277 3136" xmlSpace="preserve" xmlns="http://www.w3.org/2000/svg" xmlnsOoo="http://xml.openoffice.org/svg/export" xmlnsXlink="http://www.w3.org/1999/xlink">
 <defs class="ClipPathGroup">
  <clipPath id="a">
   <rect width="3277" height="3136"/>
  </clipPath>
  
 </defs>
 <defs class="TextShapeIndex">
  
 </defs>
 <defs class="EmbeddedBulletChars">
  
  
  
  
  
  
  
  
  
  
 </defs>
 
  <g class="Master_Slide">
   
   
  </g>
 
 <g class="SlideGroup">
  
   
    <g class="Slide" clip-path="url(#a)">
     <g class="Page">
      <g class="Graphic">
       
        <rect class="BoundingBox" width="3277" height="3136" fill="none"/>
        <defs>
         <clipPath>
          <path d="m1635 13h-1621v3108h1621v-3108z"/>
         </clipPath>
        </defs>
        
        <defs>
         <clipPath id="c">
          <path d="m14 13h1621v3108h-1621v-3108z"/>
         </clipPath>
        </defs>
        <g clip-path="url(#c)">
         <path d="m1464 128-361 846-918 83v-1c-51 5-96 30-127 67-7 8-13 17-19 27-16 28-25 61-25 93 0 5 0 10 1 15v1c2 24 9 47 19 68 9 18 20 33 34 47 5 6 11 11 17 15l688 602-205 901c-12 50-2 101 24 141 16 26 38 48 64 63 16 9 34 16 52 20 2 1 4 1 7 2 22 4 45 4 68 0 25-4 48-14 69-27l2-2 783-469 791 474c2 1 3 2 4 2 28 16 60 25 92 25 16 0 31-2 46-6 17-4 33-10 48-19 27-16 50-39 66-66 13-21 21-44 25-67 3-20 3-40 0-60-1-5-2-11-4-16l-204-896c232-203 473-406 700-612l5-4c11-12 21-25 29-39 16-28 25-60 25-93s-9-65-25-93c-6-11-14-21-22-30l-5-5 1-1-4-4c-16-15-32-27-50-36-23-10-47-17-72-18h-2l-910-82-362-850c-21-48-58-82-103-100-22-9-46-14-68-14-33 0-65 9-94 25-14 8-27 18-39 30-17 18-31 38-40 60l-1 3zm-187 990 361-847 360 847 6 12c9 16 23 30 39 39 14 8 29 13 45 14l915 83-688 601c-32 25-48 67-39 109l205 898-788-472c-33-20-75-22-111-1l-789 473 205-898c8-38-3-78-34-105l-693-605 909-82c18-1 36-6 51-15 17-9 30-23 40-39l6-12z" fill="#ffcf00"/>
        </g>
        
        <defs>
         <clipPath id="b">
          <path d="m14 13h1621v3108h-1621v-3108z"/>
         </clipPath>
        </defs>
        <g clip-path="url(#b)">
         <path d="m1464 128-361 846-918 83v-1c-51 5-96 30-127 67-7 8-13 17-19 27-16 28-25 61-25 93 0 5 0 10 1 15v1c2 24 9 47 19 68 9 18 20 33 34 47 5 6 11 11 17 15l688 602-205 901c-12 50-2 101 24 141 16 26 38 48 64 63 16 9 34 16 52 20 2 1 4 1 7 2 22 4 45 4 68 0 25-4 48-14 69-27l2-2 802-481c16-1 32-6 45-14 17-9 30-23 40-39 9-17 14-35 14-54h1v-2382c0-59-47-107-105-108-12-1-24-1-38 1-16 2-33 6-48 13-23 10-43 23-60 40-17 18-31 38-40 60l-1 3zm-187 990 264-619v1927l-748 448 205-898c8-38-3-78-34-105l-693-605 909-82c18-1 36-6 51-15 17-9 30-23 40-39l6-12z" fill="#ffcf00"/>
         <path d="m1565 167-388 909-983 88c-12 1-23 5-33 11-12 6-22 16-29 28-7 13-10 26-10 40v7c2 21 12 39 27 52l744 650-220 964c-10 42 17 85 59 95 22 5 44 0 61-11l844-506 10 7v-2382c-3-1-7-1-9-1-14 0-28 4-40 11s-22 17-29 29c-2 3-3 6-4 9z" fill="#fff"/>
         <path d="m2992 1419 133-117c6-5 12-12 16-20 7-12 11-25 11-39s-4-27-11-39-17-22-28-29-23-10-36-11l-980-88-388-910c-11-26-35-43-62-47v1500h-10c519 0 994-75 1355-200z" fill="#ffd401"/>
        </g>
        
       
      </g>
     </g>
    </g>
   
  
 </g>
</svg>
